<svg width="800" height="800" viewBox="0 0 800 800" fill="none" xmlns="http://www.w3.org/2000/svg">
<path d="M789 366.859C788.972 347.527 783.215 328.637 772.456 312.574C761.698 296.512 746.421 283.999 728.554 276.615C710.688 269.231 691.034 267.307 672.075 271.087C653.116 274.866 635.702 284.18 622.034 297.851C567.326 262.549 497.462 240.066 420.739 236.559C420.724 220.549 424.317 204.742 431.252 190.313C438.187 175.883 448.285 163.202 460.795 153.212C473.282 143.15 487.878 136.036 503.497 132.399C519.115 128.763 535.353 128.698 551 132.21L555.364 133.184C555.364 134.275 555.208 135.366 555.208 136.457C555.166 156.116 562.22 175.13 575.073 190.005C587.927 204.88 605.717 214.617 625.174 217.427C644.632 220.236 664.449 215.93 680.986 205.298C697.523 194.667 709.667 178.425 715.188 159.557C720.708 140.688 719.235 120.462 711.037 102.593C702.84 84.7246 688.469 70.4146 670.566 62.2925C652.663 54.1705 632.43 52.7821 613.586 58.3824C594.741 63.9827 578.55 76.1956 567.989 92.7769L560.157 91.0234C538.338 86.1244 515.694 86.2151 493.915 91.2888C472.137 96.3625 451.784 106.288 434.377 120.325C416.933 134.258 402.854 151.943 393.187 172.067C383.52 192.19 378.513 214.234 378.539 236.559C301.778 240.066 231.952 262.549 177.284 297.812C167.343 287.778 155.346 280.015 142.119 275.059C128.893 270.103 114.749 268.071 100.662 269.102C86.5746 270.134 72.878 274.204 60.5139 281.034C48.1498 287.863 37.4118 297.29 29.0384 308.665C20.6649 320.041 14.8548 333.095 12.0076 346.93C9.16035 360.765 9.34364 375.052 12.5448 388.81C15.746 402.567 21.8891 415.468 30.5516 426.625C39.2141 437.782 50.1904 446.93 62.7256 453.44C60.3487 465.519 59.1018 477.91 59.1018 490.535C59.1018 631.044 211.534 744.978 399.659 744.978C587.705 744.978 740.176 631.044 740.176 490.535C740.176 477.91 738.93 465.558 736.553 453.44C752.366 445.172 765.615 432.732 774.86 417.469C784.106 402.206 788.996 384.704 789 366.859ZM636.84 97.0241C647.089 97.3462 656.81 101.644 663.946 109.008C671.082 116.371 675.072 126.223 675.072 136.476C675.072 146.73 671.082 156.582 663.946 163.945C656.81 171.309 647.089 175.607 636.84 175.929C626.592 175.607 616.87 171.309 609.735 163.945C602.599 156.582 598.609 146.73 598.609 136.476C598.609 126.223 602.599 116.371 609.735 109.008C616.87 101.644 626.592 97.3462 636.84 97.0241ZM52.4388 366.898C52.4388 336.232 77.3766 311.294 108.042 311.294C121.174 311.294 133.214 315.892 142.721 323.529C112.991 349.052 89.9624 379.055 75.6621 411.981C68.4845 406.855 62.6333 400.091 58.5943 392.25C54.5553 384.409 52.4451 375.718 52.4388 366.898ZM615.176 636.655C558.092 679.322 481.525 702.818 399.62 702.818C317.715 702.818 241.148 679.322 184.103 636.655C130.72 596.793 101.301 544.891 101.301 490.535C101.301 436.217 130.681 384.354 184.103 344.415C241.148 301.787 317.676 278.33 399.62 278.33C481.564 278.33 558.092 301.787 615.176 344.454C668.558 384.354 697.977 436.217 697.977 490.574C697.977 544.891 668.558 596.793 615.176 636.694V636.655ZM723.577 411.942C709.277 379.016 686.248 349.052 656.518 323.529C666.025 315.892 678.105 311.294 691.197 311.294C721.863 311.294 746.801 336.232 746.801 366.898C746.801 385.445 737.644 401.889 723.577 411.942Z" fill="black"/>
<path d="M275.242 475.651C299.84 475.651 319.78 455.711 319.78 431.114C319.78 406.516 299.84 386.576 275.242 386.576C250.645 386.576 230.705 406.516 230.705 431.114C230.705 455.711 250.645 475.651 275.242 475.651Z" fill="black"/>
<path d="M523.997 475.651C548.594 475.651 568.534 455.711 568.534 431.114C568.534 406.516 548.594 386.576 523.997 386.576C499.4 386.576 479.46 406.516 479.46 431.114C479.46 455.711 499.4 475.651 523.997 475.651Z" fill="black"/>
<path d="M505.138 539.32C473.825 567.882 432.962 583.699 390.58 583.662C367.207 583.761 344.07 578.997 322.637 569.673C301.205 560.348 281.946 546.668 266.086 529.5C262.272 525.403 256.987 522.988 251.394 522.787C245.8 522.586 240.355 524.615 236.258 528.429C232.16 532.242 229.745 537.527 229.544 543.121C229.343 548.715 231.373 554.159 235.186 558.257C255.089 579.552 279.147 596.539 305.875 608.167C332.603 619.795 361.432 625.817 390.58 625.862C443.489 625.91 494.501 606.158 533.582 570.492C535.629 568.624 537.288 566.372 538.464 563.863C539.641 561.354 540.311 558.638 540.438 555.87C540.564 553.102 540.145 550.336 539.202 547.731C538.26 545.125 536.814 542.73 534.946 540.683C533.078 538.637 530.826 536.978 528.317 535.801C525.808 534.625 523.092 533.955 520.324 533.828C517.556 533.701 514.791 534.121 512.185 535.063C509.579 536.006 507.185 537.452 505.138 539.32Z" fill="black"/>
</svg>
