<svg width="100" height="100" viewBox="0 0 100 100" fill="none" xmlns="http://www.w3.org/2000/svg">
  <path d="M58.8191 98V95.2881C61.7812 95.1073 63.9804 94.7458 65.4166 94.2034C66.9425 93.661 67.9299 92.5763 68.3787 90.9492C68.9173 89.322 69.1865 86.8814 69.1865 83.6271V16.3729C69.1865 13.0282 68.9173 10.5876 68.3787 9.05085C67.9299 7.42373 66.9425 6.33898 65.4166 5.79661C63.9804 5.16384 61.7812 4.80226 58.8191 4.71186V2C61.2426 2.09039 64.2496 2.18079 67.8401 2.27118C71.4306 2.36158 75.021 2.40677 78.6115 2.40677C82.561 2.40677 86.2412 2.36158 89.6522 2.27118C93.1529 2.18079 95.9355 2.09039 98 2V4.71186C95.1276 4.80226 92.9285 5.16384 91.4025 5.79661C89.9663 6.33898 88.979 7.42373 88.4404 9.05085C87.9018 10.5876 87.6325 13.0282 87.6325 16.3729V83.6271C87.6325 86.8814 87.9018 89.322 88.4404 90.9492C88.979 92.5763 89.9663 93.661 91.4025 94.2034C92.9285 94.7458 95.1276 95.1073 98 95.2881V98C95.9355 97.8192 93.1529 97.7288 89.6522 97.7288C86.2412 97.6384 82.561 97.5932 78.6115 97.5932C75.021 97.5932 71.4306 97.6384 67.8401 97.7288C64.2496 97.7288 61.2426 97.8192 58.8191 98ZM2 98V95.2881C4.96213 95.1073 7.16129 94.7458 8.59748 94.2034C10.1234 93.661 11.1108 92.5763 11.5596 90.9492C12.0982 89.322 12.3675 86.8814 12.3675 83.6271V16.3729C12.3675 13.0282 12.0982 10.5876 11.5596 9.05085C11.1108 7.42373 10.1234 6.33898 8.59748 5.79661C7.16129 5.16384 4.96213 4.80226 2 4.71186V2C4.24404 2.09039 7.11641 2.18079 10.6171 2.27118C14.1178 2.36158 17.8878 2.40677 21.9271 2.40677C25.5175 2.40677 29.0631 2.36158 32.5638 2.27118C36.0645 2.18079 38.9369 2.09039 41.1809 2V4.71186C38.3086 4.80226 36.1094 5.16384 34.5835 5.79661C33.1473 6.33898 32.1599 7.42373 31.6213 9.05085C31.0828 10.5876 30.8135 13.0282 30.8135 16.3729V83.6271C30.8135 86.8814 31.0828 89.322 31.6213 90.9492C32.1599 92.5763 33.1473 93.661 34.5835 94.2034C36.1094 94.7458 38.3086 95.1073 41.1809 95.2881V98C38.9369 97.8192 36.0645 97.7288 32.5638 97.7288C29.0631 97.6384 25.5175 97.5932 21.9271 97.5932C17.8878 97.5932 14.1178 97.6384 10.6171 97.7288C7.11641 97.7288 4.24404 97.8192 2 98ZM23.4081 51.0847V48.3729H76.5919V51.0847H23.4081Z"/>
  <style>
      path { fill: #000; }
      @media (prefers-color-scheme: dark) {
        path { fill: #FFF; }
      }
  </style>
</svg>
