<svg width="400" height="400" viewBox="0 0 400 400" fill="none" xmlns="http://www.w3.org/2000/svg">
<g clip-path="url(#clip0_601_10)">
<rect width="400" height="400" rx="70" fill="url(#paint0_linear_601_10)"/>
<rect x="403.331" y="-3.34448" width="258.538" height="604.186" transform="rotate(45 403.331 -3.34448)" fill="white" fill-opacity="0.13"/>
<path d="M221.575 264.654C221.575 256.463 222.936 243.005 225.657 224.282H159.766C157.239 238.91 155.975 248.954 155.975 254.415C155.975 273.333 158.891 287.473 164.722 296.835C153.06 305.612 140.912 310 128.278 310C115.644 310 106.606 306.392 101.163 299.176C95.7212 291.764 93 280.842 93 266.41C93 251.782 99.1226 210.532 111.368 142.66L95.9155 111.356C117.879 97.1188 137.899 90 155.975 90C170.942 90 178.425 99.1667 178.425 117.5C178.425 122.961 174.343 146.95 166.18 189.468H231.488C232.265 184.592 235.084 168.989 239.943 142.66L224.49 111.356C246.454 97.1188 266.474 90 284.55 90C299.517 90 307 99.1667 307 117.5C307 123.546 303.21 146.073 295.629 185.08C288.243 223.892 284.55 247.004 284.55 254.415C284.55 273.333 287.466 287.473 293.297 296.835C281.635 305.612 269.487 310 256.853 310C244.219 310 235.181 306.392 229.738 299.176C224.296 291.764 221.575 280.257 221.575 264.654Z" fill="white"/>
</g>
<defs>
<linearGradient id="paint0_linear_601_10" x1="200" y1="0" x2="200" y2="400" gradientUnits="userSpaceOnUse">
<stop stop-color="#14B8A6"/>
<stop offset="1" stop-color="#0EA5E9"/>
</linearGradient>
<clipPath id="clip0_601_10">
<rect width="400" height="400" rx="70" fill="white"/>
</clipPath>
</defs>
</svg>
