<svg width="675" height="376" viewBox="0 0 675 376" fill="none" xmlns="http://www.w3.org/2000/svg">
<circle cx="550" cy="206" r="125" fill="#09090B"/>
<path d="M220.5 298.5C220.5 284.5 222.833 261.5 227.5 229.5H114.5C110.167 254.5 108 271.667 108 281C108 313.333 113 337.5 123 353.5C103 368.5 82.1667 376 60.5 376C38.8333 376 23.3333 369.833 14 357.5C4.66667 344.833 0 326.167 0 301.5C0 276.5 10.5 206 31.5 90L5 36.5C42.6667 12.1667 77 0 108 0C133.667 0 146.5 15.6667 146.5 47C146.5 56.3333 139.5 97.3333 125.5 170H237.5C238.833 161.667 243.667 135 252 90L225.5 36.5C263.167 12.1667 297.5 0 328.5 0C354.167 0 367 15.6667 367 47C367 57.3333 360.5 95.8333 347.5 162.5C334.833 228.833 328.5 268.333 328.5 281C328.5 313.333 333.5 337.5 343.5 353.5C323.5 368.5 302.667 376 281 376C259.333 376 243.833 369.833 234.5 357.5C225.167 344.833 220.5 325.167 220.5 298.5Z" fill="url(#paint0_linear_602_16)"/>
<defs>
<linearGradient id="paint0_linear_602_16" x1="176.5" y1="-73.5" x2="176.5" y2="437.5" gradientUnits="userSpaceOnUse">
<stop stop-color="#14B8A6"/>
<stop offset="1" stop-color="#0EA5E9"/>
</linearGradient>
</defs>
</svg>
